<?xml version="1.0" encoding="utf-8"?>
<!-- Generator: Adobe Illustrator 15.0.0, SVG Export Plug-In . SVG Version: 6.00 Build 0)  -->
<!DOCTYPE svg PUBLIC "-//W3C//DTD SVG 1.1//EN" "http://www.w3.org/Graphics/SVG/1.1/DTD/svg11.dtd">
<svg version="1.1" id="Layer_1" xmlns="http://www.w3.org/2000/svg" xmlns:xlink="http://www.w3.org/1999/xlink" x="0px" y="0px"
	 width="610px" height="250px" viewBox="0 0 610 250" enable-background="new 0 0 610 250" xml:space="preserve">
<g>
	<g>
		<path fill="#FFFFFF" stroke="#FF66E9" stroke-width="2.8489" stroke-miterlimit="10" d="M395.553,158.071
			c-17.08,49.043-70.687,74.956-119.731,57.872c-49.044-17.081-74.951-70.688-57.87-119.731
			C235.031,47.17,288.638,21.26,337.681,38.34C386.725,55.423,412.633,109.027,395.553,158.071z"/>
		<g>
			<path fill="#FFFFFF" stroke="#FF66E9" stroke-width="2.8489" stroke-miterlimit="10" d="M372.816,148.197
				c0,0,13.943-7.444,14.588-22.898c0.093-2.265,0.009-4.457-0.2-6.557c2.035,1.233,4.249,2.382,6.64,3.356
				c14.324,5.835,26.891-3.751,26.891-3.751s-2.288-15.639-16.612-21.475c-2.022-0.824-4.035-1.467-6.011-1.975
				c1.547-1.403,3.069-2.954,4.506-4.674c9.915-11.872,4.605-26.76,4.605-26.76s-15.593-2.575-25.509,9.294
				c-1.45,1.734-2.716,3.521-3.825,5.309c-0.859-1.963-1.877-3.953-3.09-5.914c-8.144-13.149-23.948-12.798-23.948-12.798
				s-7.356,13.991,0.788,27.141c1.181,1.91,2.47,3.663,3.81,5.27c-2.072,0.214-4.207,0.562-6.374,1.097
				c-15.019,3.695-19.552,18.835-19.552,18.835s11.042,11.312,26.061,7.618c1.869-0.461,3.653-1.03,5.346-1.671
				c-0.383,2.078-0.651,4.255-0.744,6.521C359.542,139.616,372.816,148.197,372.816,148.197z"/>
			<path fill="#FFFFFF" stroke="#FF66E9" stroke-width="2.8489" stroke-miterlimit="10" d="M345.879,198.873
				c0,0,15.759,1.218,24.612-11.465c1.297-1.859,2.402-3.751,3.359-5.637c1.05,2.136,2.301,4.293,3.793,6.4
				c8.937,12.622,24.688,11.296,24.688,11.296s6.479-14.416-2.458-27.041c-1.264-1.782-2.617-3.407-4.011-4.896
				c2.061-0.354,4.177-0.84,6.317-1.52c14.741-4.676,18.267-20.082,18.267-20.082s-11.763-10.558-26.506-5.88
				c-2.154,0.681-4.182,1.509-6.079,2.42c0.333-2.119,0.546-4.346,0.578-6.649c0.201-15.467-13.313-23.666-13.313-23.666
				s-13.726,7.84-13.929,23.306c-0.03,2.246,0.118,4.416,0.38,6.49c-1.863-0.932-3.848-1.786-5.963-2.501
				c-14.651-4.959-26.615,5.372-26.615,5.372s3.23,15.474,17.882,20.433c1.823,0.615,3.631,1.098,5.406,1.466
				c-1.439,1.544-2.839,3.239-4.134,5.098C339.298,184.5,345.879,198.873,345.879,198.873z"/>
			<path fill="#FFFFFF" stroke="#FF66E9" stroke-width="2.8489" stroke-miterlimit="10" d="M246.345,162.9
				c0,0-2.345,15.628,9.671,25.37c1.76,1.424,3.574,2.668,5.383,3.753c-2.207,0.896-4.447,1.987-6.657,3.326
				c-13.231,8.01-13.039,23.814-13.039,23.814s13.916,7.499,27.147-0.511c1.869-1.13,3.59-2.368,5.173-3.65
				c0.203,2.083,0.539,4.229,1.062,6.409c3.607,15.041,18.724,19.662,18.724,19.662s11.375-10.974,7.765-26.016
				c-0.527-2.195-1.206-4.277-1.978-6.237c2.09,0.487,4.292,0.855,6.589,1.053c15.413,1.311,24.559-11.581,24.559-11.581
				s-6.833-14.251-22.247-15.562c-2.238-0.193-4.412-0.202-6.5-0.091c1.062-1.788,2.058-3.708,2.923-5.764
				c5.996-14.258-3.449-26.933-3.449-26.933s-15.666,2.115-21.662,16.37c-0.746,1.773-1.354,3.545-1.852,5.288
				c-1.438-1.548-3.027-3.063-4.786-4.491C261.154,157.368,246.345,162.9,246.345,162.9z"/>
			<path fill="#FFFFFF" stroke="#FF66E9" stroke-width="2.8489" stroke-miterlimit="10" d="M224.839,205.36
				c0,0,15.529-2.941,20.761-17.499c0.762-2.131,1.337-4.248,1.769-6.315c1.572,1.784,3.341,3.542,5.333,5.184
				c11.927,9.85,26.783,4.456,26.783,4.456s2.488-15.611-9.44-25.46c-1.682-1.388-3.415-2.607-5.148-3.68
				c1.895-0.874,3.813-1.902,5.698-3.114c13.009-8.365,12.389-24.162,12.389-24.162s-14.116-7.117-27.124,1.25
				c-1.903,1.222-3.643,2.547-5.237,3.925c-0.232-2.132-0.609-4.335-1.18-6.567c-3.844-14.984-19.032-19.368-19.032-19.368
				s-11.201,11.155-7.356,26.137c0.557,2.174,1.266,4.23,2.064,6.167c-2.042-0.414-4.185-0.721-6.41-0.857
				c-15.438-0.957-24.289,12.14-24.289,12.14s7.162,14.09,22.601,15.047c1.915,0.122,3.791,0.111,5.599,0.004
				c-0.983,1.87-1.89,3.866-2.658,6.003C214.732,193.204,224.839,205.36,224.839,205.36z"/>
			<path fill="#FFFFFF" stroke="#FF66E9" stroke-width="2.8489" stroke-miterlimit="10" d="M198.168,88.021
				c0,0-2.346,15.635,9.668,25.374c1.761,1.426,3.575,2.666,5.384,3.753c-2.207,0.896-4.446,1.987-6.657,3.323
				c-13.23,8.014-13.038,23.818-13.038,23.818s13.915,7.498,27.145-0.514c1.87-1.132,3.59-2.365,5.174-3.646
				c0.204,2.081,0.539,4.226,1.062,6.408c3.606,15.038,18.724,19.662,18.724,19.662s11.374-10.978,7.764-26.017
				c-0.523-2.199-1.206-4.279-1.976-6.237c2.09,0.484,4.291,0.856,6.589,1.05c15.412,1.315,24.559-11.577,24.559-11.577
				s-6.834-14.252-22.248-15.565c-2.237-0.189-4.411-0.201-6.5-0.088c1.062-1.789,2.058-3.71,2.924-5.767
				c5.996-14.26-3.45-26.931-3.45-26.931s-15.665,2.111-21.66,16.37c-0.746,1.771-1.355,3.541-1.851,5.285
				c-1.437-1.546-3.028-3.062-4.788-4.489C212.978,82.491,198.168,88.021,198.168,88.021z"/>
			<path fill="#FFFFFF" stroke="#FF66E9" stroke-width="2.8489" stroke-miterlimit="10" d="M254.547,119.439
				c0,0,13.994-7.35,14.746-22.799c0.108-2.263,0.041-4.457-0.154-6.562c2.026,1.251,4.233,2.415,6.617,3.405
				c14.284,5.932,26.916-3.566,26.916-3.566s-2.179-15.657-16.463-21.591c-2.016-0.837-4.029-1.494-6.001-2.016
				c1.557-1.393,3.092-2.934,4.541-4.642c9.996-11.801,4.788-26.725,4.788-26.725s-15.577-2.684-25.574,9.118
				c-1.46,1.723-2.738,3.501-3.862,5.284c-0.845-1.974-1.848-3.97-3.047-5.936c-8.055-13.208-23.861-12.963-23.861-12.963
				s-7.451,13.938,0.603,27.144c1.167,1.917,2.447,3.678,3.773,5.295c-2.074,0.201-4.208,0.534-6.381,1.053
				c-15.042,3.593-19.679,18.705-19.679,18.705s10.965,11.384,26.01,7.792c1.867-0.449,3.659-1.004,5.355-1.634
				c-0.395,2.073-0.678,4.254-0.787,6.516C241.332,110.766,254.547,119.439,254.547,119.439z"/>
			<path fill="#FFFFFF" stroke="#FF66E9" stroke-width="2.8489" stroke-miterlimit="10" d="M308.629,98.814
				c0,0,12.461-9.724,10.446-25.058c-0.295-2.247-0.752-4.393-1.318-6.428c2.214,0.867,4.591,1.618,7.116,2.168
				c15.113,3.292,25.851-8.303,25.851-8.303s-4.936-15.019-20.048-18.313c-2.133-0.466-4.234-0.753-6.266-0.914
				c1.288-1.649,2.52-3.438,3.641-5.378c7.732-13.395-0.05-27.153-0.05-27.153s-15.806,0.137-23.541,13.531
				c-1.131,1.955-2.07,3.935-2.858,5.888c-1.184-1.789-2.525-3.574-4.058-5.298c-10.278-11.559-25.786-8.5-25.786-8.5
				s-4.849,15.042,5.431,26.601c1.489,1.675,3.059,3.184,4.655,4.537c-2.004,0.565-4.047,1.278-6.09,2.174
				c-14.165,6.216-16.033,21.912-16.033,21.912s12.819,9.247,26.981,3.03c1.759-0.772,3.421-1.639,4.979-2.562
				c-0.021,2.115,0.092,4.307,0.387,6.556C294.083,92.636,308.629,98.814,308.629,98.814z"/>
			<path fill="#FFFFFF" stroke="#FF66E9" stroke-width="2.8489" stroke-miterlimit="10" d="M376.454,102.215
				c0,0,5.585-14.788-4.11-26.839c-1.419-1.765-2.929-3.357-4.471-4.802c2.344-0.414,4.768-1.007,7.209-1.85
				c14.622-5.043,17.762-20.535,17.762-20.535s-12.023-10.259-26.646-5.217c-2.065,0.714-4.005,1.559-5.825,2.479
				c0.24-2.076,0.365-4.247,0.313-6.489c-0.361-15.461-14.163-23.165-14.163-23.165s-13.43,8.334-13.072,23.797
				c0.053,2.257,0.277,4.437,0.622,6.515c-1.942-0.914-4.019-1.741-6.224-2.417c-14.787-4.528-26.446,6.147-26.446,6.147
				s3.678,15.369,18.469,19.9c2.146,0.657,4.271,1.127,6.339,1.456c-1.417,1.524-2.795,3.194-4.074,5.021
				c-8.867,12.673-2.301,27.054-2.301,27.054s15.758,1.236,24.623-11.441c1.102-1.574,2.07-3.175,2.922-4.777
				c1.083,1.815,2.314,3.633,3.736,5.4C360.812,104.503,376.454,102.215,376.454,102.215z"/>
			<path fill="#FFFFFF" stroke="#FF66E9" stroke-width="2.8489" stroke-miterlimit="10" d="M239.699,150.378
				c0,0-6.188,14.548,3.01,26.983c1.343,1.826,2.787,3.479,4.266,4.984c-2.359,0.315-4.801,0.811-7.277,1.553
				c-14.813,4.44-18.586,19.788-18.586,19.788s11.593,10.747,26.408,6.304c2.091-0.625,4.066-1.391,5.925-2.235
				c-0.329,2.064-0.539,4.23-0.579,6.468c-0.275,15.464,13.199,23.729,13.199,23.729s13.762-7.777,14.037-23.242
				c0.041-2.259-0.098-4.444-0.352-6.535c1.899,0.992,3.941,1.901,6.115,2.667c14.59,5.13,26.677-5.054,26.677-5.054
				s-3.047-15.515-17.639-20.643c-2.118-0.748-4.22-1.303-6.272-1.715c1.479-1.467,2.923-3.075,4.276-4.853
				c9.377-12.299,3.406-26.937,3.406-26.937s-15.694-1.878-25.073,10.423c-1.164,1.528-2.197,3.089-3.113,4.653
				c-1.006-1.86-2.166-3.723-3.51-5.545C255.422,148.733,239.699,150.378,239.699,150.378z"/>
			<path fill="#FFFFFF" stroke="#FF66E9" stroke-width="2.8489" stroke-miterlimit="10" d="M228.885,94.018
				c0,0-13.035,8.94-11.974,24.368c0.159,2.261,0.484,4.433,0.924,6.499c-2.162-1.005-4.487-1.9-6.97-2.604
				c-14.88-4.223-26.313,6.692-26.313,6.692s3.995,15.293,18.875,19.512c2.102,0.596,4.179,1.015,6.2,1.3
				c-1.386,1.565-2.73,3.275-3.968,5.143c-8.546,12.894-1.628,27.103-1.628,27.103s15.784,0.842,24.333-12.048
				c1.249-1.881,2.309-3.798,3.216-5.701c1.067,1.863,2.302,3.725,3.719,5.54c9.546,12.171,25.216,10.079,25.216,10.079
				s5.768-14.714-3.775-26.888c-1.386-1.765-2.862-3.366-4.369-4.817c2.037-0.44,4.119-1.021,6.213-1.792
				c14.521-5.329,17.356-20.877,17.356-20.877s-12.222-10.026-26.744-4.693c-1.805,0.663-3.515,1.423-5.131,2.245
				c0.153-2.104,0.18-4.299,0.023-6.56C243.027,101.083,228.885,94.018,228.885,94.018z"/>
			<path fill="#FFFFFF" stroke="#FF66E9" stroke-width="2.8489" stroke-miterlimit="10" d="M223.052,47.321
				c0,0-10.249,12.032-5.188,26.649c0.739,2.144,1.621,4.153,2.586,6.031c-2.346-0.401-4.827-0.66-7.411-0.69
				c-15.465-0.188-23.65,13.332-23.65,13.332s7.856,13.717,23.32,13.905c2.186,0.026,4.298-0.115,6.322-0.364
				c-0.927,1.873-1.775,3.874-2.485,6c-4.884,14.675,5.51,26.585,5.51,26.585s15.457-3.31,20.339-17.985
				c0.712-2.146,1.236-4.271,1.613-6.345c1.517,1.517,3.195,2.994,5.04,4.375c12.396,9.253,26.973,3.143,26.973,3.143
				s1.723-15.712-10.671-24.968c-1.798-1.343-3.638-2.501-5.472-3.51c1.849-0.956,3.706-2.063,5.526-3.35
				c12.626-8.941,11.297-24.693,11.297-24.693s-14.415-6.48-27.037,2.461c-1.571,1.105-3.022,2.287-4.365,3.509
				c-0.406-2.075-0.955-4.2-1.694-6.343C238.55,50.448,223.052,47.321,223.052,47.321z"/>
			<path fill="#FFFFFF" stroke="#FF66E9" stroke-width="2.8489" stroke-miterlimit="10" d="M331.182,53.229
				c0,0-7.982-13.643-23.448-13.693c-2.263-0.006-4.455,0.165-6.545,0.455c1.154-2.081,2.216-4.337,3.099-6.765
				c5.278-14.54-4.792-26.726-4.792-26.726s-15.537,2.891-20.814,17.43c-0.748,2.051-1.312,4.093-1.741,6.086
				c-1.463-1.492-3.074-2.953-4.846-4.324c-12.247-9.448-26.916-3.566-26.916-3.566s-1.974,15.686,10.272,25.134
				c1.787,1.38,3.624,2.574,5.456,3.614c-1.934,0.934-3.879,2.03-5.792,3.319c-12.826,8.644-11.86,24.422-11.86,24.422
				s14.263,6.813,27.087-1.836c1.864-1.253,3.563-2.609,5.119-4.009c0.295,2.06,0.723,4.182,1.341,6.325
				c4.275,14.865,19.58,18.808,19.58,18.808s10.877-11.471,6.602-26.337c-0.533-1.845-1.169-3.605-1.875-5.276
				c2.09,0.301,4.277,0.487,6.545,0.495C323.119,66.827,331.182,53.229,331.182,53.229z"/>
			<path fill="#FFFFFF" stroke="#FF66E9" stroke-width="2.8489" stroke-miterlimit="10" d="M319.076,13.032
				c0,0-10.248,12.032-5.19,26.65c0.742,2.139,1.624,4.151,2.585,6.031c-2.344-0.406-4.823-0.664-7.406-0.694
				c-15.466-0.185-23.65,13.335-23.65,13.335s7.855,13.717,23.321,13.902c2.182,0.03,4.296-0.113,6.317-0.363
				c-0.927,1.874-1.775,3.873-2.482,6.001c-4.882,14.676,5.513,26.587,5.513,26.587s15.457-3.313,20.335-17.992
				c0.716-2.142,1.238-4.266,1.617-6.343c1.518,1.521,3.193,2.998,5.038,4.375c12.395,9.255,26.972,3.142,26.972,3.142
				s1.722-15.712-10.67-24.965c-1.797-1.347-3.638-2.504-5.474-3.511c1.852-0.958,3.708-2.061,5.528-3.353
				c12.623-8.937,11.3-24.687,11.3-24.687s-14.419-6.481-27.042,2.456c-1.567,1.111-3.021,2.292-4.365,3.511
				c-0.402-2.072-0.951-4.198-1.691-6.343C334.572,16.156,319.076,13.032,319.076,13.032z"/>
			<path fill="#FFFFFF" stroke="#FF66E9" stroke-width="2.8489" stroke-miterlimit="10" d="M413.455,87.675
				c0,0-7.978-13.641-23.446-13.691c-2.267-0.006-4.453,0.164-6.544,0.452c1.153-2.08,2.214-4.335,3.095-6.761
				c5.276-14.541-4.786-26.728-4.786-26.728s-15.54,2.891-20.817,17.43c-0.747,2.052-1.312,4.094-1.741,6.087
				c-1.461-1.494-3.072-2.956-4.846-4.325c-12.246-9.448-26.916-3.566-26.916-3.566s-1.973,15.681,10.272,25.133
				c1.788,1.382,3.624,2.576,5.456,3.616c-1.934,0.931-3.883,2.028-5.791,3.317c-12.826,8.646-11.864,24.422-11.864,24.422
				s14.265,6.809,27.09-1.835c1.86-1.254,3.561-2.612,5.12-4.011c0.292,2.061,0.723,4.177,1.339,6.325
				c4.275,14.865,19.582,18.806,19.582,18.806s10.872-11.471,6.601-26.336c-0.532-1.845-1.168-3.605-1.876-5.277
				c2.09,0.303,4.279,0.489,6.548,0.495C405.396,101.275,413.455,87.675,413.455,87.675z"/>
			<path fill="#FFFFFF" stroke="#FF66E9" stroke-width="2.8489" stroke-miterlimit="10" d="M378.394,87.436
				c0,0-13.034,8.94-11.973,24.371c0.157,2.262,0.481,4.43,0.919,6.495c-2.156-1.001-4.483-1.897-6.967-2.604
				c-14.878-4.22-26.313,6.692-26.313,6.692s3.998,15.292,18.877,19.514c2.099,0.598,4.175,1.012,6.195,1.299
				c-1.383,1.567-2.726,3.278-3.964,5.145c-8.549,12.89-1.629,27.103-1.629,27.103s15.787,0.842,24.332-12.052
				c1.25-1.879,2.309-3.799,3.215-5.698c1.071,1.86,2.302,3.726,3.724,5.54c9.545,12.172,25.214,10.076,25.214,10.076
				s5.768-14.715-3.775-26.886c-1.386-1.768-2.86-3.365-4.368-4.817c2.036-0.442,4.119-1.025,6.213-1.791
				c14.521-5.333,17.354-20.881,17.354-20.881s-12.222-10.023-26.741-4.693c-1.803,0.662-3.516,1.423-5.13,2.25
				c0.152-2.106,0.178-4.303,0.021-6.565C392.537,94.504,378.394,87.436,378.394,87.436z"/>
			<path fill="#FFFFFF" stroke="#FF66E9" stroke-width="2.8489" stroke-miterlimit="10" d="M321.429,147.537
				c0,0-6.187,14.546,3.008,26.987c1.345,1.822,2.787,3.475,4.267,4.983c-2.359,0.315-4.8,0.807-7.277,1.549
				c-14.814,4.442-18.585,19.792-18.585,19.792s11.589,10.743,26.408,6.303c2.091-0.627,4.066-1.393,5.921-2.232
				c-0.327,2.062-0.541,4.225-0.579,6.467c-0.277,15.465,13.199,23.726,13.199,23.726s13.765-7.778,14.039-23.242
				c0.041-2.257-0.097-4.445-0.354-6.534c1.902,0.991,3.944,1.905,6.116,2.667c14.592,5.134,26.68-5.055,26.68-5.055
				s-3.049-15.509-17.641-20.643c-2.115-0.742-4.219-1.297-6.271-1.713c1.48-1.466,2.922-3.074,4.274-4.85
				c9.377-12.3,3.408-26.937,3.408-26.937s-15.695-1.879-25.073,10.422c-1.165,1.527-2.195,3.091-3.113,4.654
				c-1.006-1.856-2.167-3.724-3.512-5.546C337.151,145.894,321.429,147.537,321.429,147.537z"/>
			<path fill="#FFFFFF" stroke="#FF66E9" stroke-width="2.8489" stroke-miterlimit="10" d="M260.232,191.141
				c0,0,4.928,15.022,20.035,18.324c2.215,0.485,4.39,0.78,6.498,0.937c-1.568,1.789-3.083,3.772-4.456,5.961
				c-8.222,13.102-0.948,27.135-0.948,27.135s15.799,0.446,24.021-12.656c1.161-1.849,2.146-3.723,2.985-5.582
				c1.113,1.769,2.381,3.534,3.826,5.248c9.979,11.818,25.561,9.156,25.561,9.156s5.231-14.917-4.749-26.732
				c-1.458-1.727-2.999-3.28-4.572-4.685c2.085-0.507,4.222-1.166,6.361-2.022c14.357-5.752,16.739-21.377,16.739-21.377
				s-12.509-9.661-26.868-3.909c-2.082,0.831-4.03,1.802-5.848,2.839c0.148-2.075,0.172-4.237,0.022-6.464
				c-1.048-15.431-15.181-22.51-15.181-22.51s-13.044,8.923-11.999,24.354c0.132,1.92,0.384,3.773,0.722,5.553
				c-1.98-0.732-4.081-1.374-6.295-1.857C270.978,179.549,260.232,191.141,260.232,191.141z"/>
			<path fill="#FFFFFF" stroke="#FF66E9" stroke-width="2.8489" stroke-miterlimit="10" d="M325.619,140.84
				c0,0,3.806-15.341-7.241-26.166c-1.62-1.588-3.308-2.995-5.006-4.246c2.278-0.684,4.612-1.559,6.938-2.683
				c13.927-6.73,15.222-22.484,15.222-22.484s-13.146-8.774-27.075-2.042c-1.966,0.948-3.794,2.018-5.494,3.145
				c-0.005-2.089-0.136-4.261-0.453-6.479C300.334,64.571,285.72,58.55,285.72,58.55s-12.355,9.855-10.179,25.169
				c0.317,2.236,0.799,4.373,1.383,6.397c-2.034-0.683-4.192-1.258-6.461-1.668c-15.22-2.758-25.542,9.217-25.542,9.217
				s5.466,14.832,20.686,17.59c2.21,0.397,4.373,0.613,6.464,0.698c-1.227,1.682-2.397,3.5-3.452,5.466
				c-7.313,13.628,0.901,27.138,0.901,27.138s15.795-0.633,23.105-14.261c0.91-1.695,1.68-3.402,2.341-5.091
				c1.284,1.676,2.725,3.335,4.345,4.92C310.355,144.952,325.619,140.84,325.619,140.84z"/>
			<path fill="#FFFFFF" stroke="#FF66E9" stroke-width="2.8489" stroke-miterlimit="10" d="M362.128,152.632
				c0,0-5.021-14.992-20.148-18.203c-2.219-0.468-4.393-0.75-6.503-0.897c1.559-1.8,3.06-3.792,4.417-5.986
				c8.144-13.149,0.786-27.14,0.786-27.14s-15.801-0.351-23.946,12.799c-1.149,1.855-2.118,3.736-2.948,5.601
				c-1.125-1.762-2.4-3.521-3.855-5.226c-10.054-11.754-25.619-9.001-25.619-9.001s-5.139,14.947,4.911,26.704
				c1.467,1.715,3.019,3.263,4.599,4.655c-2.082,0.518-4.215,1.192-6.349,2.057c-14.322,5.839-16.611,21.482-16.611,21.482
				s12.568,9.588,26.892,3.749c2.078-0.847,4.022-1.825,5.832-2.878c-0.134,2.078-0.146,4.242,0.017,6.465
				c1.14,15.428,15.317,22.42,15.317,22.42s12.99-9.003,11.849-24.429c-0.14-1.915-0.402-3.771-0.752-5.55
				c1.981,0.727,4.09,1.354,6.304,1.826C351.449,164.289,362.128,152.632,362.128,152.632z"/>
		</g>
	</g>
	<g>
		<path d="M67.687,98.125h-2.943c0.617-3.051,0.927-5.014,0.927-5.886c0-1.199-0.42-2.088-1.256-2.67
			c-0.832-0.582-2.414-0.873-4.736-0.873l-3.483,0.055l-1.144-0.055H44.165c-0.22,0.837-0.803,2.962-1.747,6.379
			c-1.967,7.049-3.458,12.826-4.475,17.333h10.617c2.578,0,4.249-0.254,5.009-0.764c0.764-0.506,1.397-1.798,1.908-3.87h2.943
			c-1.127,4.581-2.107,9.357-2.943,14.336h-2.997c0.251-2.072,0.38-3.287,0.38-3.651c0-0.872-0.438-1.529-1.309-1.962
			c-0.507-0.255-1.887-0.42-4.139-0.493H37.012c-1.054,5.053-2.434,10.504-4.142,16.354c-1.702,5.85-3.173,10.376-4.409,13.574
			c2.901,0.472,5.495,0.708,7.781,0.708c1.485,0,2.954-0.107,4.405-0.327l-0.926,3.108c-1.057,0.108-2.036,0.162-2.944,0.162
			c-0.8,0-3.308-0.126-7.523-0.38c-2.51-0.183-4.634-0.273-6.378-0.273c-3.525,0-7.287,0.328-11.281,0.979l0.652-2.998
			c3.234-0.688,5.369-1.417,6.406-2.178c1.034-0.765,1.824-1.691,2.37-2.782c1.127-2.218,3.234-9.084,6.325-20.605l8.337-32.651
			c-4.87,0.145-9.129,1.236-12.784,3.271c-3.649,2.035-6.558,4.768-8.722,8.204c-2.162,3.435-3.243,6.915-3.243,10.44
			c0,1.417,0.182,2.871,0.546,4.361c0.182,0.836,0.691,2.036,1.524,3.595c1.055,1.929,1.583,3.271,1.583,4.035
			c0,0.761-0.308,1.427-0.926,1.99c-0.618,0.563-1.418,0.844-2.401,0.844c-1.451,0-2.635-0.762-3.543-2.288
			c-1.235-2.036-1.852-4.925-1.852-8.668c0-7.304,2.854-14.027,8.557-20.168c5.707-6.106,13.229-9.157,22.57-9.157h20.93
			c2.325,0,4.888-0.148,7.688-0.438c0.834-0.072,2.635-0.452,5.395-1.145C69.158,91.166,68.048,96.02,67.687,98.125z"/>
		<path d="M104.404,104.504h7.764l-5.127,19.051c-3.015,11.063-4.522,17.359-4.522,18.889c0,0.689,0.162,1.217,0.493,1.579
			c0.325,0.363,0.688,0.546,1.087,0.546c0.616,0,1.346-0.272,2.183-0.818c1.198-0.836,3.47-2.943,6.813-6.322l1.798,2.014
			c-7.305,7.595-12.682,11.392-16.135,11.392c-1.164,0-2.152-0.443-2.971-1.333c-0.818-0.891-1.226-2.156-1.226-3.789
			c0-1.89,0.393-4.414,1.181-7.576c-3.232,3.708-7.229,6.959-11.984,9.755c-3.161,1.856-5.904,2.782-8.228,2.782
			c-1.27,0-2.267-0.421-2.995-1.254c-0.724-0.837-1.089-2.167-1.089-3.985c0-1.421,0.164-2.948,0.49-4.587
			c0.474-2.293,1.672-6.894,3.597-13.809c2.436-8.769,3.653-14.028,3.653-15.775c0-1.019-0.362-1.527-1.091-1.527
			c-0.652,0-1.543,0.335-2.67,1.007c-1.127,0.674-3.05,2.299-5.778,4.879l-2.399-1.909c4.872-4.361,8.589-7.221,11.148-8.584
			c2.562-1.364,4.625-2.044,6.186-2.044c0.873,0,1.583,0.318,2.128,0.955c0.546,0.635,0.819,1.629,0.819,2.974
			c0,2.512-1.311,8.68-3.927,18.506c-2.327,8.842-3.489,13.881-3.489,15.121c0,0.762,0.245,1.415,0.736,1.962
			c0.487,0.546,1.024,0.819,1.606,0.819c2.032,0,4.919-1.681,8.66-5.041c3.74-3.363,6.19-7.188,7.352-11.474L104.404,104.504z"/>
		<path d="M142.856,103.086c3.235,0,5.734,0.626,7.498,1.879c1.762,1.256,2.642,2.7,2.642,4.334c0,0.983-0.375,1.838-1.118,2.562
			c-0.747,0.729-1.645,1.092-2.697,1.092c-0.693,0-1.293-0.156-1.803-0.465c-0.506-0.309-1.234-1.082-2.178-2.317
			c-1.78-2.362-3.544-3.543-5.288-3.543c-1.489,0-2.809,0.572-3.954,1.716c-1.145,1.144-1.718,2.569-1.718,4.274
			c0,1.489,0.367,2.931,1.092,4.326c0.728,1.398,2.562,3.659,5.505,6.78c4.035,4.281,6.052,8.347,6.052,12.192
			c0,3.852-1.636,7.216-4.907,10.102c-3.27,2.886-7.487,4.328-12.646,4.328c-4.325,0-7.541-0.881-9.648-2.643
			c-2.111-1.763-3.163-3.936-3.163-6.518c0-1.27,0.399-2.325,1.2-3.158c0.8-0.836,1.779-1.256,2.943-1.256
			c1.016,0,1.887,0.336,2.617,1.009c0.725,0.673,1.091,1.463,1.091,2.372c0,0.362-0.025,0.837-0.075,1.418
			c-0.025,0.47-0.037,0.873-0.037,1.2c0,1.198,0.509,2.215,1.524,3.051c0.977,0.836,2.314,1.256,4.017,1.256
			c1.957,0,3.677-0.339,5.161-1.01c1.484-0.67,2.645-1.689,3.478-3.047c0.833-1.363,1.248-2.715,1.248-4.057
			c0-1.309-0.39-2.614-1.172-3.922c-0.783-1.305-2.536-3.463-5.26-6.477c-3.78-4.21-5.667-8.257-5.667-12.14
			c0-3.56,1.435-6.67,4.303-9.337C134.77,104.422,138.424,103.086,142.856,103.086z"/>
		<path d="M156.375,115.732l-2.397-1.853c3.627-3.999,6.942-6.839,9.936-8.53c2.995-1.69,5.544-2.536,7.649-2.536
			c1.162,0,2.051,0.255,2.668,0.764c0.615,0.506,0.928,1.199,0.928,2.071c0,1.052-1.18,5.525-3.538,13.411
			c-3.84,12.9-5.758,20.675-5.758,23.331c0,0.506,0.125,0.936,0.379,1.28c0.254,0.344,0.527,0.519,0.819,0.519
			c1.163,0,4.143-2.254,8.938-6.759l2.129,2.072c-4.979,4.688-8.615,7.685-10.905,8.992c-2.286,1.31-4.161,1.963-5.613,1.963
			c-1.271,0-2.282-0.398-3.023-1.198c-0.748-0.801-1.119-1.911-1.119-3.325c0-4.543,2.726-15.646,8.177-33.306
			c0.255-0.835,0.38-1.583,0.38-2.236c0-0.725-0.327-1.091-0.979-1.091c-0.729,0-1.553,0.291-2.482,0.873
			C161.634,110.754,159.572,112.609,156.375,115.732z M177.8,79.647c1.122,0,2.053,0.372,2.778,1.119
			c0.727,0.742,1.09,1.695,1.09,2.858c0,1.601-0.555,3.01-1.663,4.226c-1.11,1.218-2.353,1.825-3.735,1.825
			c-1.087,0-2-0.38-2.725-1.144c-0.725-0.762-1.091-1.762-1.091-2.998c0-1.637,0.527-3.024,1.583-4.169
			C175.089,80.219,176.345,79.647,177.8,79.647z"/>
		<path d="M208.433,103.086c3.562,0,6.524,1.418,8.886,4.252c2.362,2.833,3.543,6.778,3.543,11.829
			c0,8.068-2.836,15.307-8.504,21.721c-5.671,6.415-11.665,9.622-17.99,9.622c-3.888,0-7.024-1.271-9.402-3.816
			c-2.38-2.542-3.57-6.011-3.57-10.41c0-7.632,2.18-14.682,6.54-21.151C193.424,107.103,200.255,103.086,208.433,103.086z
			 M203.8,107.175c-3.09,0-6.078,2.209-8.967,6.625c-2.89,4.414-4.333,10.511-4.333,18.286c0,4.724,0.889,8.45,2.67,11.174
			c1.31,1.999,3.054,3.001,5.233,3.001c3.054,0,5.833-1.892,8.342-5.671c3.198-4.904,4.794-10.991,4.794-18.26
			c0-5.451-0.733-9.339-2.206-11.665C207.86,108.338,206.016,107.175,203.8,107.175z M214.104,80.681h10.354l-18.479,15.809h-3.215
			L214.104,80.681z"/>
		<path d="M227.674,115.896l-1.852-1.908c4.655-4.456,8.366-7.413,11.129-8.874c2.766-1.46,5.129-2.193,7.091-2.193
			c0.765,0,1.365,0.165,1.802,0.491c0.435,0.328,0.654,0.712,0.654,1.146c0,0.326-0.093,0.908-0.273,1.743l-2.459,10.973
			c3.702-4.114,8.346-7.949,13.933-11.514c2.975-1.854,5.425-2.781,7.346-2.781c1.416,0,2.523,0.452,3.321,1.359
			c0.796,0.909,1.198,2.22,1.198,3.928c0,1.127-0.166,2.397-0.489,3.815c-0.582,2.363-2.102,7.502-4.565,15.428
			c-2.317,7.412-3.474,12.337-3.474,14.771c0,0.746,0.108,1.306,0.327,1.677c0.215,0.372,0.523,0.56,0.926,0.56
			c1.052,0,2.706-1.02,4.961-3.055c1.597-1.453,3.197-2.796,4.795-4.031l1.364,1.959c-3.345,3.69-6.814,6.656-10.413,8.899
			c-2.29,1.446-4.178,2.168-5.667,2.168c-1.382,0-2.455-0.501-3.217-1.499c-0.764-0.998-1.145-2.625-1.145-4.879
			c0-3.234,2.018-11.282,6.052-24.146c1.234-4.58,1.853-7.25,1.853-8.015c0-1.127-0.672-1.691-2.018-1.691
			c-1.453,0-3.323,0.766-5.613,2.293c-3.417,2.258-6.27,4.914-8.558,7.973c-1.454,1.963-2.673,5.093-3.653,9.388l-4.415,19.051
			h-8.124c1.526-5.458,2.854-10.682,3.98-15.669l4.85-20.743c0.183-0.837,0.274-1.436,0.274-1.799c0-0.981-0.364-1.473-1.089-1.473
			c-0.581,0-1.417,0.383-2.509,1.153C231.745,111.902,229.638,113.734,227.674,115.896z"/>
		<path d="M281.968,137.1c1.417,0,2.608,0.536,3.57,1.609c0.965,1.074,1.445,2.424,1.445,4.062c0,2.361-0.565,4.213-1.687,5.561
			c-1.127,1.341-2.545,2.016-4.253,2.016c-1.418,0-2.609-0.5-3.57-1.499c-0.965-1.001-1.444-2.281-1.444-3.845
			c0-2.288,0.67-4.287,2.017-5.996C279.025,137.739,280.335,137.1,281.968,137.1z"/>
		<path d="M343.893,151.28l-4.307-58.714c-0.945,9.885-2.689,19.104-5.232,27.666c-2.543,8.558-5.432,15.173-8.667,19.841
			c-3.234,4.671-6.543,7.95-9.921,9.837c-3.38,1.892-6.723,2.836-10.03,2.836c-1.998,0-3.537-0.408-4.605-1.227
			c-1.074-0.817-1.61-1.807-1.61-2.97c0-0.983,0.392-1.837,1.172-2.563c0.782-0.728,1.771-1.091,2.97-1.091
			c0.873,0,2.129,0.193,3.762,0.574c1.489,0.38,2.728,0.572,3.708,0.572c1.709,0,3.489-0.636,5.342-1.905
			c2.799-1.889,5.568-5.276,8.314-10.156c2.742-4.886,5.197-11.69,7.359-20.423c2.16-8.732,3.515-17.254,4.062-25.571
			c-8.25,0-14.955,2.053-20.116,6.16c-4.107,3.274-6.159,6.925-6.159,10.958c0,1.781,0.967,3.924,2.907,6.432
			c1.039,1.347,1.561,2.434,1.561,3.271c0,0.944-0.298,1.727-0.894,2.343c-0.596,0.618-1.308,0.926-2.139,0.926
			c-1.409,0-2.655-0.797-3.739-2.398c-1.481-2.143-2.223-4.687-2.223-7.631c0-4.142,1.392-8.114,4.174-11.911
			c2.777-3.798,6.628-6.687,11.553-8.665c4.925-1.982,10.695-2.992,17.308-3.028c3.564,0,6.413-0.327,8.561-0.98
			c-0.12,3.271-0.17,5.033-0.153,5.287c-0.015,0.329,0.032,1.074,0.147,2.237l3.163,41.513
			c8.791-15.336,17.379-27.956,25.771-37.863c5.954-7.013,11.144-11.755,15.566-14.228c-2.522,6.905-5.227,16.008-8.115,27.311
			l-6.688,26.164c-0.366,1.453-0.86,3.583-1.481,6.378l-1.315,5.832c2.762,0.654,5.292,0.984,7.584,0.984
			c1.853,0,3.835-0.22,5.944-0.657l-0.708,3.162c-1.856,0.326-3.292,0.493-4.309,0.493c-1.49,0-3.636-0.167-6.436-0.493
			c-2.292-0.29-4.329-0.434-6.11-0.434c-1.889,0-4.037,0.362-6.436,1.087c2.003-5.232,4.099-12.266,6.285-21.095l4.208-16.68
			c1.784-7.197,3.33-12.135,4.645-14.828c-2.917,3.313-7.421,9.386-13.506,18.229c-4.886,7.13-10.356,16.153-16.408,27.066
			L343.893,151.28z"/>
		<path d="M432.911,102.16l3.596-0.765l-4.088,13.791c-1.633,5.489-3.18,11.812-4.633,18.97c-0.798,3.891-1.199,6.396-1.199,7.522
			c0,1.127,0.457,1.691,1.363,1.691c0.582,0,1.507-0.381,2.778-1.145c2.255-1.346,4.418-3.015,6.49-5.015l1.745,2.125
			c-4.146,3.78-6.798,6.069-7.961,6.87c-2.326,1.598-4.542,2.778-6.648,3.543c-1.382,0.505-2.727,0.761-4.034,0.761
			c-0.945,0-1.654-0.215-2.126-0.654c-0.473-0.434-0.71-1.072-0.71-1.906c0-0.545,0.146-1.292,0.438-2.236l2.18-7.412
			c-3.127,3.74-6.85,6.957-11.174,9.648c-2.653,1.669-5.091,2.506-7.305,2.506c-2.106,0-3.726-0.744-4.852-2.233
			c-1.525-2-2.291-4.615-2.291-7.85c0-3.855,1.029-8.141,3.082-12.865c2.054-4.727,4.804-9.013,8.257-12.865
			c3.454-3.854,7.086-6.686,10.903-8.506c2.945-1.379,6.723-2.071,11.337-2.071c1.163,0,2.345,0.076,3.543,0.22L432.911,102.16z
			 M426.153,110.499c-1.963-0.399-3.619-0.6-4.961-0.6c-3.271,0-6.124,0.899-8.561,2.701c-2.434,1.797-4.696,5.033-6.786,9.703
			c-2.089,4.668-3.135,9.33-3.135,13.981c0,2.471,0.42,4.25,1.257,5.341c0.835,1.091,1.923,1.634,3.269,1.634
			c2.51,0,5.198-1.352,8.07-4.058c2.868-2.709,4.979-6.605,6.322-11.692L426.153,110.499z M429.53,80.681h10.359l-18.481,15.809
			h-3.214L429.53,80.681z"/>
		<path d="M465.291,135.793l1.853,1.963c-2.836,3.199-6.187,6.116-10.056,8.75c-3.873,2.635-7.062,3.951-9.567,3.951
			c-1.128,0-2.054-0.427-2.781-1.279c-0.727-0.854-1.089-2.027-1.089-3.516c0-2.908,1.124-8.942,3.373-18.098l5.879-23.932
			c2.145-8.649,3.939-14.446,5.392-17.39c2.249-4.452,5.433-7.91,9.553-10.371c4.121-2.462,8.464-3.692,13.04-3.692
			c1.56,0,2.787,0.375,3.676,1.124c0.888,0.752,1.331,1.659,1.331,2.717c0,1.171-0.434,2.135-1.302,2.883
			c-0.869,0.751-2.137,1.124-3.801,1.124c-1.086,0-2.626-0.182-4.619-0.544c-1.738-0.291-3.349-0.435-4.836-0.435
			c-1.483,0-2.605,0.309-3.365,0.922c-1.052,0.869-2.001,2.694-2.852,5.48c-0.852,2.784-2.238,8.281-4.155,16.491l-5.439,22.839
			c-2.689,11.447-4.032,17.428-4.032,17.937c0,1.163,0.416,1.744,1.253,1.744c0.799,0,1.961-0.473,3.49-1.417
			C459.253,141.152,462.27,138.736,465.291,135.793z"/>
		<path d="M506.555,102.16l3.597-0.765l-4.09,13.791c-1.632,5.489-3.179,11.812-4.632,18.97c-0.797,3.891-1.199,6.396-1.199,7.522
			c0,1.127,0.455,1.691,1.364,1.691c0.581,0,1.507-0.381,2.781-1.145c2.251-1.346,4.415-3.015,6.486-5.015l1.745,2.125
			c-4.144,3.78-6.798,6.069-7.96,6.87c-2.325,1.598-4.542,2.778-6.648,3.543c-1.382,0.505-2.729,0.761-4.035,0.761
			c-0.944,0-1.655-0.215-2.125-0.654c-0.475-0.434-0.711-1.072-0.711-1.906c0-0.545,0.148-1.292,0.439-2.236l2.179-7.412
			c-3.127,3.74-6.849,6.957-11.175,9.648c-2.651,1.669-5.09,2.506-7.304,2.506c-2.107,0-3.726-0.744-4.853-2.233
			c-1.525-2-2.29-4.615-2.29-7.85c0-3.855,1.027-8.141,3.081-12.865c2.052-4.727,4.804-9.013,8.257-12.865
			c3.453-3.854,7.088-6.686,10.904-8.506c2.944-1.379,6.723-2.071,11.336-2.071c1.163,0,2.343,0.076,3.544,0.22L506.555,102.16z
			 M499.797,110.499c-1.964-0.399-3.619-0.6-4.961-0.6c-3.27,0-6.124,0.899-8.558,2.701c-2.438,1.797-4.7,5.033-6.789,9.703
			c-2.09,4.668-3.132,9.33-3.132,13.981c0,2.471,0.416,4.25,1.252,5.341c0.836,1.091,1.926,1.634,3.271,1.634
			c2.507,0,5.197-1.352,8.068-4.058c2.871-2.709,4.979-6.605,6.32-11.692L499.797,110.499z"/>
		<path d="M552.958,102.706l4.381-0.988c-2.644,8.505-5.072,17.032-7.28,25.572c-1.592,6.106-2.698,11.192-3.312,15.263
			c-0.331,2.035-0.51,4.616-0.545,7.742c-0.073,5.229-0.654,9.446-1.746,12.646c-1.529,4.468-4.371,8.068-8.535,10.792
			c-4.164,2.725-9.098,4.089-14.805,4.089c-4.908,0-8.77-1.153-11.589-3.461c-2.817-2.308-4.225-4.952-4.225-7.931
			c0-2.942,1.13-5.689,3.386-8.23c1.678-1.928,5.174-4.254,10.493-6.978c2.695-1.418,5.229-2.871,7.597-4.362
			c-2.702,1.383-4.801,2.071-6.297,2.071c-1.353,0-2.548-0.626-3.591-1.882c-1.039-1.253-1.559-2.915-1.559-4.989
			c0-6.682,1.99-13.325,5.968-19.923c3.983-6.593,8.772-11.543,14.372-14.854c3.455-2.036,7.778-3.051,12.979-3.051
			c1.019,0,2.272,0.036,3.763,0.106L552.958,102.706z M539.479,140.481c-2.477,2.219-7.246,5.761-14.309,10.628
			c-6.228,4.217-10.051,7.25-11.47,9.106c-1.418,1.888-2.13,3.887-2.13,5.994c0,2.07,0.918,3.935,2.76,5.587
			c1.838,1.655,4.066,2.482,6.691,2.482c2.475,0,4.877-0.608,7.208-1.829c2.33-1.217,4.36-2.979,6.09-5.288
			c1.729-2.308,2.921-4.912,3.576-7.819c0.658-2.907,1.004-6.763,1.04-11.558C538.972,146.731,539.152,144.297,539.479,140.481z
			 M546.87,110.772c-1.743-0.328-3.285-0.489-4.628-0.489c-3.45,0-6.408,0.909-8.876,2.725c-2.469,1.817-4.574,4.871-6.317,9.156
			c-2.432,6.07-3.648,11.178-3.648,15.32c0,1.709,0.478,3.144,1.443,4.304c0.961,1.163,2.043,1.745,3.241,1.745
			c1.45,0,3.248-0.698,5.388-2.098c2.145-1.4,3.896-3.153,5.256-5.261c1.362-2.107,2.752-5.739,4.166-10.902L546.87,110.772z"/>
		<path d="M598.078,102.16l3.601-0.765l-4.091,13.791c-1.635,5.489-3.178,11.812-4.632,18.97c-0.799,3.891-1.199,6.396-1.199,7.522
			c0,1.127,0.453,1.691,1.361,1.691c0.582,0,1.51-0.381,2.782-1.145c2.254-1.346,4.416-3.015,6.486-5.015l1.745,2.125
			c-4.142,3.78-6.795,6.069-7.958,6.87c-2.326,1.598-4.545,2.778-6.651,3.543c-1.382,0.505-2.725,0.761-4.035,0.761
			c-0.944,0-1.654-0.215-2.125-0.654c-0.475-0.434-0.71-1.072-0.71-1.906c0-0.545,0.146-1.292,0.438-2.236l2.181-7.412
			c-3.126,3.74-6.851,6.957-11.177,9.648c-2.652,1.669-5.087,2.506-7.305,2.506c-2.106,0-3.724-0.744-4.849-2.233
			c-1.529-2-2.29-4.615-2.29-7.85c0-3.855,1.024-8.141,3.078-12.865c2.054-4.727,4.808-9.013,8.258-12.865
			c3.452-3.854,7.088-6.686,10.904-8.506c2.943-1.379,6.723-2.071,11.339-2.071c1.163,0,2.344,0.076,3.542,0.22L598.078,102.16z
			 M591.32,110.499c-1.962-0.399-3.615-0.6-4.96-0.6c-3.27,0-6.124,0.899-8.558,2.701c-2.434,1.797-4.695,5.033-6.785,9.703
			c-2.089,4.668-3.135,9.33-3.135,13.981c0,2.471,0.416,4.25,1.253,5.341c0.836,1.091,1.926,1.634,3.272,1.634
			c2.506,0,5.195-1.352,8.067-4.058c2.871-2.709,4.979-6.605,6.325-11.692L591.32,110.499z"/>
	</g>
</g>
</svg>
